<svg width="33" height="30" viewBox="0 0 33 30" fill="none" xmlns="http://www.w3.org/2000/svg">
<path d="M22 27.5V22.6625C22.0516 22.0665 21.963 21.4673 21.7401 20.9048C21.5173 20.3422 21.1653 19.8293 20.7075 19.4C25.025 18.9625 29.5625 17.475 29.5625 10.65C29.5621 8.9048 28.8237 7.22651 27.5 5.96251C28.1268 4.43565 28.0825 2.74795 27.3762 1.25001C27.3762 1.25001 25.7538 0.812514 22 3.10001C18.8485 2.32354 15.5265 2.32354 12.375 3.10001C8.62125 0.812514 6.99875 1.25001 6.99875 1.25001C6.29252 2.74795 6.2482 4.43565 6.875 5.96251C5.54142 7.23589 4.80222 8.92934 4.8125 10.6875C4.8125 17.4625 9.35 18.95 13.6675 19.4375C13.2151 19.8625 12.8662 20.3693 12.6435 20.9249C12.4209 21.4806 12.3294 22.0726 12.375 22.6625V27.5M12.375 23.75C5.5 25.625 5.5 20.625 2.75 20L12.375 23.75Z" stroke="#B3541E" stroke-width="2" stroke-linecap="round" stroke-linejoin="round"/>
</svg>
