<svg width="33" height="30" viewBox="0 0 33 30" fill="none" xmlns="http://www.w3.org/2000/svg">
<path d="M22 10C24.188 10 26.2865 10.7902 27.8336 12.1967C29.3808 13.6032 30.25 15.5109 30.25 17.5V26.25H24.75V17.5C24.75 16.837 24.4603 16.2011 23.9445 15.7322C23.4288 15.2634 22.7293 15 22 15C21.2707 15 20.5712 15.2634 20.0555 15.7322C19.5397 16.2011 19.25 16.837 19.25 17.5V26.25H13.75V17.5C13.75 15.5109 14.6192 13.6032 16.1664 12.1967C17.7135 10.7902 19.812 10 22 10V10Z" stroke="#B3541E" stroke-width="2" stroke-linecap="round" stroke-linejoin="round"/>
<path d="M8.25 11.25H2.75V26.25H8.25V11.25Z" stroke="#B3541E" stroke-width="2" stroke-linecap="round" stroke-linejoin="round"/>
<path d="M5.5 7.5C7.01878 7.5 8.25 6.38071 8.25 5C8.25 3.61929 7.01878 2.5 5.5 2.5C3.98122 2.5 2.75 3.61929 2.75 5C2.75 6.38071 3.98122 7.5 5.5 7.5Z" stroke="#B3541E" stroke-width="2" stroke-linecap="round" stroke-linejoin="round"/>
</svg>
