<svg width="33" height="30" viewBox="0 0 33 30" fill="none" xmlns="http://www.w3.org/2000/svg">
<path d="M31.625 3.75C30.3083 4.59434 28.8504 5.24013 27.3075 5.6625C26.4794 4.79688 25.3788 4.18336 24.1547 3.9049C22.9305 3.62645 21.6418 3.69649 20.4629 4.10556C19.2839 4.51464 18.2716 5.243 17.5629 6.19214C16.8541 7.14129 16.4831 8.26542 16.5 9.4125V10.6625C14.0836 10.7195 11.6893 10.2323 9.53014 9.2443C7.37102 8.25635 5.51419 6.79829 4.125 5C4.125 5 -1.375 16.25 11 21.25C8.16823 22.9975 4.79484 23.8737 1.375 23.75C13.75 30 28.875 23.75 28.875 9.375C28.8737 9.02681 28.8369 8.67949 28.765 8.3375C30.1683 7.07936 31.1586 5.49089 31.625 3.75V3.75Z" stroke="#B3541E" stroke-width="2" stroke-linecap="round" stroke-linejoin="round"/>
</svg>
